<?xml version="1.0" standalone="no"?>
<!DOCTYPE svg PUBLIC "-//W3C//DTD SVG 20010904//EN"
 "http://www.w3.org/TR/2001/REC-SVG-20010904/DTD/svg10.dtd">
<svg version="1.0" xmlns="http://www.w3.org/2000/svg"
 width="500.000000pt" height="500.000000pt" viewBox="0 0 500.000000 500.000000"
 preserveAspectRatio="xMidYMid meet">
<metadata>
Created by potrace 1.11, written by Peter Selinger 2001-2013
</metadata>
<g transform="translate(0.000000,500.000000) scale(0.100000,-0.100000)"
fill="#000000" stroke="none">
<path d="M1274 4667 c-3 -8 -31 -97 -62 -198 l-57 -184 -120 -5 c-138 -6 -195
-27 -240 -85 -57 -76 -55 7 -55 -1695 0 -1536 0 -1566 20 -1620 26 -73 79
-123 153 -144 l57 -17 0 -204 0 -205 70 0 70 0 0 205 0 205 180 0 180 0 0
-155 0 -155 70 0 70 0 0 155 0 155 925 0 925 0 0 -155 0 -155 70 0 70 0 0 155
0 155 175 0 175 0 0 -205 0 -205 70 0 70 0 0 210 c0 161 3 210 13 210 38 0 90
25 126 61 76 76 71 -44 71 1718 -1 1701 2 1612 -54 1685 -44 59 -104 80 -240
86 l-118 5 -50 110 c-27 61 -67 148 -88 195 l-39 85 -85 3 -85 3 -21 -73 c-12
-40 -40 -130 -62 -200 l-40 -128 -409 0 -409 0 0 160 0 160 -70 0 -70 0 0
-160 0 -160 -418 0 -418 0 -89 200 -90 199 -83 1 c-60 0 -84 -4 -88 -13z
m2471 -412 l51 -110 157 -5 c146 -5 158 -7 179 -28 l23 -23 3 -1557 c1 -856 0
-1572 -3 -1590 -3 -18 -15 -42 -26 -53 -19 -19 -48 -19 -1606 -19 l-1587 0
-23 22 -23 21 0 1584 c0 1014 4 1591 10 1603 16 30 67 40 216 40 l142 0 37
118 c20 64 43 140 52 167 8 28 18 53 22 57 3 4 40 -70 82 -165 l76 -172 998 0
998 0 23 65 c12 36 38 116 56 178 l33 112 30 -67 c16 -38 53 -117 80 -178z"/>
<path d="M1342 4264 c-24 -48 -40 -90 -35 -93 4 -4 40 -5 80 -3 l71 4 -31 89
c-18 49 -34 89 -37 89 -3 0 -25 -39 -48 -86z"/>
<path d="M3616 4265 c-20 -48 -33 -91 -30 -96 5 -9 74 -5 131 7 22 4 22 5 -13
82 -19 42 -39 81 -43 85 -5 5 -25 -31 -45 -78z"/>
<path d="M2057 3300 l-47 -5 2 -220 3 -220 70 0 70 0 3 221 2 222 -27 3 c-16
2 -49 2 -76 -1z"/>
<path d="M2872 3078 l3 -223 68 -3 67 -3 0 226 0 225 -70 0 -70 0 2 -222z"/>
<path d="M1000 2240 l0 -70 569 0 569 0 4 66 c1 36 1 68 -1 70 -2 2 -260 4
-573 4 l-568 0 0 -70z"/>
<path d="M2880 2240 l0 -70 570 0 570 0 0 70 0 70 -570 0 -570 0 0 -70z"/>
<path d="M1000 2030 l0 -70 573 2 572 3 0 65 0 65 -573 3 -572 2 0 -70z"/>
<path d="M2880 2030 l0 -70 570 0 570 0 0 70 0 70 -570 0 -570 0 0 -70z"/>
<path d="M1000 1820 l0 -70 571 2 572 3 1 65 1 65 -572 3 -573 2 0 -70z"/>
<path d="M2880 1820 l0 -70 570 0 570 0 0 70 0 70 -570 0 -570 0 0 -70z"/>
</g>
</svg>
